<?xml version="1.0" encoding="UTF-8" standalone="no"?>
<!-- Created with Inkscape (http://www.inkscape.org/) -->

<svg
   version="1.1"
   id="svg2"
   xml:space="preserve"
   width="666.66669"
   height="666.66669"
   viewBox="0 0 666.66669 666.66669"
   sodipodi:docname="6543124.eps"
   xmlns:inkscape="http://www.inkscape.org/namespaces/inkscape"
   xmlns:sodipodi="http://sodipodi.sourceforge.net/DTD/sodipodi-0.dtd"
   xmlns="http://www.w3.org/2000/svg"
   xmlns:svg="http://www.w3.org/2000/svg"><defs
     id="defs6" /><sodipodi:namedview
     id="namedview4"
     pagecolor="#ffffff"
     bordercolor="#666666"
     borderopacity="1.0"
     inkscape:pageshadow="2"
     inkscape:pageopacity="0.0"
     inkscape:pagecheckerboard="0" /><g
     id="g8"
     inkscape:groupmode="layer"
     inkscape:label="ink_ext_XXXXXX"
     transform="matrix(1.3333333,0,0,-1.3333333,0,666.66667)"><g
       id="g10"
       transform="scale(0.1)"><path
         d="M 5000,0 H 0 V 5000 H 5000 V 0"
         style="fill:#ffffff;fill-opacity:1;fill-rule:nonzero;stroke:none"
         id="path12" /><path
         d="M 3833.83,3629.72 C 3258.9,4281.49 2469.37,4520.86 1865.04,4449.3 1174.31,4367.5 692.711,3865.08 564.695,3185.37 555.879,3138.55 548.723,3090.8 543.363,3042.14 509.512,2734.73 549.781,2390.1 678.402,2038.01 1185.71,649.34 2706.18,341.77 3553.45,645.18 c 929.13,332.718 1355.77,1765.43 280.38,2984.54"
         style="fill:#d6e3ea;fill-opacity:1;fill-rule:nonzero;stroke:none"
         id="path14" /><path
         d="m 4628.55,3751.99 c -0.88,101.98 -1.74,203.95 -2.71,305.94 -0.11,10.83 -1.66,78.85 -4.4,86.22 -2.57,16.41 -528.45,0.95 -631.74,3.15 -101.42,2.16 -606.75,-4.53 -609.63,-4.69 -13.5,-0.75 -11.09,-48.39 -11.4,-48.38 0.03,-7.19 -0.94,-1364.02 -0.58,-2044.75 3.03,-8.91 217.92,-6.49 317.63,-6.8 103.73,-0.33 207.45,1.16 311.17,1.73 101.84,0.58 563.83,-4.78 614.09,10.4 1.49,0.45 2.58,1.85 3.93,2.65 4.32,1.39 8.3,4.68 11.43,9.64 1.63,319.5 2.27,639.3 0.67,955.77 -1.24,244.35 -0.03,486.93 1.54,729.12"
         style="fill:#405686;fill-opacity:1;fill-rule:nonzero;stroke:none"
         id="path16" /><path
         d="m 4626.04,4034.86 c -0.07,7.69 -0.13,15.38 -0.2,23.07 -0.11,10.83 -1.66,78.85 -4.4,86.22 -2.57,16.41 -528.45,0.95 -631.74,3.15 -101.42,2.16 -606.75,-4.53 -609.63,-4.69 -13.5,-0.75 -11.09,-48.39 -11.4,-48.38 0.01,-0.91 -0.01,-23.8 -0.03,-64.37 80.81,-1.86 210.49,-0.88 284.13,-1.09 116.18,-0.33 232.35,1.15 348.52,1.72 94.97,0.48 469.51,-3.16 624.75,4.37"
         style="fill:#a53ea5;fill-opacity:1;fill-rule:nonzero;stroke:none"
         id="path18" /><path
         d="m 4545.94,4079.21 c -3.88,7.13 -4.65,14.62 -1.49,22.08 0.75,1.79 2.87,5.05 4.22,6.45 1.01,1.04 2.32,2.46 3.51,3.28 2.69,1.84 4.76,3 7.9,3.89 1.69,0.48 3.82,1.15 5.56,1.26 1.97,0.12 3.79,-0.02 5.75,-0.23 5.54,-0.63 10.6,-3.56 14.45,-7.6 6.87,-7.21 8.86,-17.93 4.12,-27.78 -7.05,-14.66 -23.61,-18.13 -35.86,-10.13 -3.38,2.2 -6.23,5.23 -8.16,8.78"
         style="fill:#fbc15d;fill-opacity:1;fill-rule:nonzero;stroke:none"
         id="path20" /><path
         d="m 4472.09,4079.21 c -3.88,7.13 -4.65,14.62 -1.48,22.08 0.75,1.79 2.87,5.05 4.2,6.45 1.01,1.04 2.33,2.46 3.52,3.28 2.7,1.84 4.77,3 7.9,3.89 1.69,0.48 3.82,1.15 5.57,1.26 1.96,0.12 3.79,-0.02 5.74,-0.23 5.55,-0.63 10.6,-3.56 14.45,-7.6 6.88,-7.21 8.85,-17.93 4.12,-27.78 -7.05,-14.66 -23.61,-18.13 -35.86,-10.13 -3.38,2.2 -6.23,5.23 -8.16,8.78"
         style="fill:#ffffff;fill-opacity:1;fill-rule:nonzero;stroke:none"
         id="path22" /><path
         d="m 4398.24,4079.21 c -3.88,7.13 -4.66,14.62 -1.49,22.08 0.76,1.79 2.88,5.05 4.22,6.45 1,1.04 2.31,2.46 3.51,3.28 2.69,1.84 4.77,3 7.9,3.89 1.68,0.48 3.82,1.15 5.57,1.26 1.95,0.12 3.79,-0.02 5.74,-0.23 5.55,-0.63 10.6,-3.56 14.45,-7.6 6.88,-7.21 8.85,-17.93 4.13,-27.78 -7.06,-14.66 -23.63,-18.13 -35.86,-10.13 -3.38,2.2 -6.23,5.23 -8.17,8.78"
         style="fill:#ffffff;fill-opacity:1;fill-rule:nonzero;stroke:none"
         id="path24" /><path
         d="m 3888.09,3958.86 c -56.59,-1.6 -187.65,-0.78 -221.19,-0.88 -41.5,-0.12 -82.99,-0.45 -124.5,-0.37 -24.87,0.05 -67.61,-0.14 -96.59,0.2 -1.42,-3.21 -1.03,-8.5 -1.1,-8.5 0,-0.31 -0.01,-12.02 -0.02,-31.76 28.06,-0.46 74.45,-0.24 100.6,-0.29 40.54,-0.08 81.08,0.24 121.62,0.37 34.12,0.1 171.71,-0.79 222.65,1.1 -0.11,7.44 -0.2,14.89 -0.31,22.33 -0.04,2.07 -0.44,13.42 -1.16,17.8"
         style="fill:#d757b3;fill-opacity:1;fill-rule:nonzero;stroke:none"
         id="path26" /><path
         d="m 3832.65,3849.74 c -27.15,-1.61 -90.02,-0.78 -106.11,-0.89 -19.91,-0.11 -39.82,-0.44 -59.72,-0.36 -11.94,0.05 -32.44,-0.14 -46.34,0.2 -0.69,-3.21 -0.49,-8.5 -0.53,-8.5 0,-0.31 0,-12.03 -0.01,-31.76 13.47,-0.46 35.71,-0.24 48.26,-0.29 19.45,-0.08 38.89,0.24 58.34,0.37 16.37,0.1 82.38,-0.8 106.81,1.1 -0.05,7.44 -0.1,14.89 -0.16,22.33 -0.01,2.07 -0.2,13.42 -0.54,17.8"
         style="fill:#fbc15d;fill-opacity:1;fill-rule:nonzero;stroke:none"
         id="path28" /><path
         d="m 4001.51,3849.74 c -18.31,-1.61 -60.72,-0.78 -71.58,-0.89 -13.43,-0.11 -26.85,-0.44 -40.29,-0.36 -8.05,0.05 -21.88,-0.14 -31.25,0.2 -0.46,-3.21 -0.33,-8.5 -0.36,-8.5 0,-0.31 0,-12.03 -0.01,-31.76 9.09,-0.46 24.1,-0.24 32.56,-0.29 13.12,-0.08 26.24,0.24 39.36,0.37 11.04,0.1 55.57,-0.8 72.05,1.1 -0.04,7.44 -0.07,14.89 -0.11,22.33 -0.01,2.07 -0.13,13.42 -0.37,17.8"
         style="fill:#6a8bcf;fill-opacity:1;fill-rule:nonzero;stroke:none"
         id="path30" /><path
         d="m 4468.97,3765.97 c -98.79,-1.6 -327.59,-0.78 -386.14,-0.88 -72.45,-0.12 -144.9,-0.45 -217.35,-0.37 -43.42,0.05 -118.02,-0.14 -168.62,0.2 -2.49,-3.21 -1.79,-8.5 -1.93,-8.5 0,-0.32 -0.02,-12.03 -0.04,-31.76 49.01,-0.46 129.98,-0.24 175.63,-0.29 70.78,-0.08 141.55,0.24 212.32,0.37 59.58,0.1 299.78,-0.79 388.7,1.1 -0.18,7.44 -0.36,14.89 -0.55,22.33 -0.06,2.07 -0.77,13.42 -2.02,17.8"
         style="fill:#ffffff;fill-opacity:1;fill-rule:nonzero;stroke:none"
         id="path32" /><path
         d="m 4468.97,3699.84 c -98.79,-1.61 -327.59,-0.79 -386.14,-0.89 -72.45,-0.12 -144.9,-0.45 -217.35,-0.37 -43.42,0.05 -118.02,-0.13 -168.62,0.2 -2.49,-3.2 -1.79,-8.5 -1.93,-8.5 0,-0.31 -0.02,-12.02 -0.04,-31.75 49.01,-0.46 129.98,-0.24 175.63,-0.29 70.78,-0.09 141.55,0.24 212.32,0.36 59.58,0.11 299.78,-0.79 388.7,1.1 -0.18,7.45 -0.36,14.89 -0.55,22.34 -0.06,2.07 -0.77,13.42 -2.02,17.8"
         style="fill:#ffffff;fill-opacity:1;fill-rule:nonzero;stroke:none"
         id="path34" /><path
         d="m 4468.97,3633.71 c -98.79,-1.61 -327.59,-0.79 -386.14,-0.89 -72.45,-0.12 -144.9,-0.45 -217.35,-0.37 -43.42,0.05 -118.02,-0.14 -168.62,0.2 -2.49,-3.2 -1.79,-8.5 -1.93,-8.5 0,-0.31 -0.02,-12.02 -0.04,-31.76 49.01,-0.46 129.98,-0.24 175.63,-0.29 70.78,-0.08 141.55,0.25 212.32,0.37 59.58,0.1 299.78,-0.79 388.7,1.1 -0.18,7.45 -0.36,14.89 -0.55,22.33 -0.06,2.07 -0.77,13.43 -2.02,17.81"
         style="fill:#ffffff;fill-opacity:1;fill-rule:nonzero;stroke:none"
         id="path36" /><path
         d="m 4216.85,3567.57 c -66.62,-1.61 -220.9,-0.79 -260.38,-0.89 -48.84,-0.12 -97.7,-0.44 -146.56,-0.36 -29.28,0.04 -79.57,-0.14 -113.7,0.2 -1.66,-3.21 -1.2,-8.5 -1.3,-8.5 0.01,-0.31 0,-12.03 -0.02,-31.77 33.05,-0.45 87.65,-0.23 118.43,-0.28 47.72,-0.08 95.44,0.25 143.16,0.37 40.18,0.1 202.13,-0.8 262.09,1.1 -0.11,7.44 -0.23,14.88 -0.37,22.33 -0.04,2.07 -0.51,13.42 -1.35,17.8"
         style="fill:#ffffff;fill-opacity:1;fill-rule:nonzero;stroke:none"
         id="path38" /><path
         d="m 3832.89,3501.44 c -17.62,-1.61 -58.4,-0.79 -68.84,-0.89 -12.92,-0.12 -25.83,-0.45 -38.75,-0.37 -7.74,0.05 -21.04,-0.14 -30.06,0.21 -0.44,-3.21 -0.32,-8.51 -0.34,-8.51 0,-0.31 -0.01,-12.02 -0.01,-31.76 8.74,-0.45 23.18,-0.23 31.31,-0.29 12.62,-0.07 25.24,0.25 37.85,0.37 10.63,0.11 53.45,-0.79 69.3,1.1 -0.04,7.45 -0.07,14.89 -0.1,22.34 -0.01,2.07 -0.14,13.42 -0.36,17.8"
         style="fill:#fbc15d;fill-opacity:1;fill-rule:nonzero;stroke:none"
         id="path40" /><path
         d="m 3832.89,3435.3 c -17.62,-1.6 -58.4,-0.78 -68.84,-0.89 -12.92,-0.11 -25.83,-0.44 -38.75,-0.36 -7.74,0.05 -21.04,-0.14 -30.06,0.2 -0.44,-3.21 -0.32,-8.5 -0.34,-8.5 0,-0.31 -0.01,-12.02 -0.01,-31.76 8.74,-0.45 23.18,-0.24 31.31,-0.29 12.62,-0.08 25.24,0.25 37.85,0.37 10.63,0.1 53.45,-0.79 69.3,1.1 -0.04,7.44 -0.07,14.89 -0.1,22.33 -0.01,2.08 -0.14,13.42 -0.36,17.8"
         style="fill:#6a8bcf;fill-opacity:1;fill-rule:nonzero;stroke:none"
         id="path42" /><path
         d="m 4468.97,3369.17 c -98.79,-1.61 -327.59,-0.79 -386.14,-0.89 -72.45,-0.12 -144.9,-0.45 -217.35,-0.36 -43.42,0.04 -118.02,-0.14 -168.62,0.2 -2.49,-3.21 -1.79,-8.51 -1.93,-8.51 0,-0.31 -0.02,-12.02 -0.04,-31.75 49.01,-0.46 129.98,-0.24 175.63,-0.29 70.78,-0.08 141.55,0.24 212.32,0.36 59.58,0.11 299.78,-0.79 388.7,1.1 -0.18,7.45 -0.36,14.9 -0.55,22.34 -0.06,2.07 -0.77,13.42 -2.02,17.8"
         style="fill:#ffffff;fill-opacity:1;fill-rule:nonzero;stroke:none"
         id="path44" /><path
         d="m 4233.88,3849.74 c -26.31,-1.61 -87.23,-0.78 -102.82,-0.89 -19.29,-0.11 -38.58,-0.44 -57.88,-0.36 -11.56,0.05 -31.42,-0.14 -44.89,0.2 -0.66,-3.21 -0.48,-8.5 -0.52,-8.5 0,-0.31 0,-12.03 -0.01,-31.76 13.05,-0.46 34.61,-0.24 46.77,-0.29 18.85,-0.08 37.69,0.24 56.53,0.37 15.86,0.1 79.82,-0.8 103.5,1.1 -0.05,7.44 -0.1,14.89 -0.15,22.33 -0.02,2.07 -0.2,13.42 -0.53,17.8"
         style="fill:#6a8bcf;fill-opacity:1;fill-rule:nonzero;stroke:none"
         id="path46" /><path
         d="m 3832.65,3212.65 c -27.15,-1.61 -90.02,-0.78 -106.11,-0.88 -19.91,-0.12 -39.82,-0.45 -59.72,-0.37 -11.94,0.05 -32.44,-0.14 -46.34,0.2 -0.69,-3.21 -0.49,-8.5 -0.53,-8.5 0,-0.31 0,-12.03 -0.01,-31.76 13.47,-0.46 35.71,-0.24 48.26,-0.29 19.45,-0.08 38.89,0.25 58.34,0.37 16.37,0.1 82.38,-0.8 106.81,1.1 -0.05,7.44 -0.1,14.89 -0.16,22.33 -0.01,2.07 -0.2,13.42 -0.54,17.8"
         style="fill:#fbc15d;fill-opacity:1;fill-rule:nonzero;stroke:none"
         id="path48" /><path
         d="m 3832.65,3122.27 c -27.15,-1.61 -90.02,-0.79 -106.11,-0.89 -19.91,-0.12 -39.82,-0.45 -59.72,-0.36 -11.94,0.04 -32.44,-0.14 -46.34,0.2 -0.69,-3.21 -0.49,-8.51 -0.53,-8.51 0,-0.31 0,-12.02 -0.01,-31.76 13.47,-0.45 35.71,-0.23 48.26,-0.28 19.45,-0.08 38.89,0.24 58.34,0.37 16.37,0.1 82.38,-0.8 106.81,1.09 -0.05,7.45 -0.1,14.89 -0.16,22.34 -0.01,2.07 -0.2,13.42 -0.54,17.8"
         style="fill:#ffffff;fill-opacity:1;fill-rule:nonzero;stroke:none"
         id="path50" /><path
         d="m 3798.58,3042.91 c -22.8,-1.61 -75.6,-0.79 -89.11,-0.89 -16.72,-0.12 -33.44,-0.45 -50.16,-0.36 -10.02,0.04 -27.24,-0.14 -38.92,0.2 -0.57,-3.21 -0.41,-8.51 -0.44,-8.51 0,-0.31 -0.01,-12.02 -0.01,-31.76 11.31,-0.45 30,-0.23 40.53,-0.28 16.34,-0.08 32.67,0.24 49,0.36 13.75,0.11 69.18,-0.79 89.71,1.1 -0.04,7.45 -0.08,14.89 -0.13,22.34 -0.01,2.07 -0.17,13.42 -0.47,17.8"
         style="fill:#fbc15d;fill-opacity:1;fill-rule:nonzero;stroke:none"
         id="path52" /><path
         d="m 4001.51,3212.65 c -18.31,-1.61 -60.72,-0.78 -71.58,-0.88 -13.43,-0.12 -26.85,-0.45 -40.29,-0.37 -8.05,0.05 -21.88,-0.14 -31.25,0.2 -0.46,-3.21 -0.33,-8.5 -0.36,-8.5 0,-0.31 0,-12.03 -0.01,-31.76 9.09,-0.46 24.1,-0.24 32.56,-0.29 13.12,-0.08 26.24,0.25 39.36,0.37 11.04,0.1 55.57,-0.8 72.05,1.1 -0.04,7.44 -0.07,14.89 -0.11,22.33 -0.01,2.07 -0.13,13.42 -0.37,17.8"
         style="fill:#6a8bcf;fill-opacity:1;fill-rule:nonzero;stroke:none"
         id="path54" /><path
         d="m 4468.97,2895.21 c -98.79,-1.61 -327.59,-0.79 -386.14,-0.89 -72.45,-0.12 -144.9,-0.45 -217.35,-0.36 -43.42,0.04 -118.02,-0.14 -168.62,0.2 -2.49,-3.21 -1.79,-8.51 -1.93,-8.51 0,-0.31 -0.02,-12.02 -0.04,-31.75 49.01,-0.46 129.98,-0.24 175.63,-0.29 70.78,-0.08 141.55,0.24 212.32,0.36 59.58,0.11 299.78,-0.79 388.7,1.1 -0.18,7.45 -0.36,14.9 -0.55,22.34 -0.06,2.07 -0.77,13.42 -2.02,17.8"
         style="fill:#ffffff;fill-opacity:1;fill-rule:nonzero;stroke:none"
         id="path56" /><path
         d="m 4468.97,2829.08 c -98.79,-1.61 -327.59,-0.79 -386.14,-0.89 -72.45,-0.12 -144.9,-0.45 -217.35,-0.37 -43.42,0.05 -118.02,-0.13 -168.62,0.2 -2.49,-3.2 -1.79,-8.5 -1.93,-8.5 0,-0.31 -0.02,-12.02 -0.04,-31.76 49.01,-0.46 129.98,-0.24 175.63,-0.29 70.78,-0.08 141.55,0.25 212.32,0.37 59.58,0.1 299.78,-0.79 388.7,1.1 -0.18,7.45 -0.36,14.89 -0.55,22.33 -0.06,2.07 -0.77,13.43 -2.02,17.81"
         style="fill:#ffffff;fill-opacity:1;fill-rule:nonzero;stroke:none"
         id="path58" /><path
         d="m 4468.97,2240.49 c -98.79,-1.61 -327.59,-0.79 -386.14,-0.89 -72.45,-0.13 -144.9,-0.45 -217.35,-0.37 -43.42,0.05 -118.02,-0.14 -168.62,0.2 -2.49,-3.2 -1.79,-8.5 -1.93,-8.5 0,-0.31 -0.02,-12.02 -0.04,-31.76 49.01,-0.46 129.98,-0.23 175.63,-0.29 70.78,-0.08 141.55,0.25 212.32,0.37 59.58,0.11 299.78,-0.79 388.7,1.1 -0.18,7.44 -0.36,14.88 -0.55,22.34 -0.06,2.07 -0.77,13.41 -2.02,17.8"
         style="fill:#ffffff;fill-opacity:1;fill-rule:nonzero;stroke:none"
         id="path60" /><path
         d="m 4468.97,2169.94 c -98.79,-1.61 -327.59,-0.78 -386.14,-0.89 -72.45,-0.11 -144.9,-0.45 -217.35,-0.36 -43.42,0.05 -118.02,-0.15 -168.62,0.2 -2.49,-3.21 -1.79,-8.5 -1.93,-8.5 0,-0.31 -0.02,-12.03 -0.04,-31.77 49.01,-0.45 129.98,-0.23 175.63,-0.28 70.78,-0.08 141.55,0.24 212.32,0.37 59.58,0.1 299.78,-0.8 388.7,1.09 -0.18,7.46 -0.36,14.9 -0.55,22.34 -0.06,2.07 -0.77,13.43 -2.02,17.8"
         style="fill:#ffffff;fill-opacity:1;fill-rule:nonzero;stroke:none"
         id="path62" /><path
         d="m 4132.8,2762.94 c -55.89,-1.61 -185.32,-0.78 -218.44,-0.88 -40.99,-0.13 -81.98,-0.45 -122.96,-0.37 -24.56,0.05 -66.77,-0.14 -95.39,0.2 -1.41,-3.2 -1.02,-8.5 -1.1,-8.5 0,-0.31 -0.01,-12.02 -0.02,-31.76 27.73,-0.46 73.54,-0.24 99.36,-0.29 40.04,-0.08 80.08,0.25 120.11,0.37 33.71,0.1 169.59,-0.8 219.9,1.1 -0.11,7.44 -0.21,14.89 -0.31,22.33 -0.03,2.07 -0.43,13.42 -1.15,17.8"
         style="fill:#ffffff;fill-opacity:1;fill-rule:nonzero;stroke:none"
         id="path64" /><path
         d="m 3970.21,2696.81 c -35.13,-1.61 -116.52,-0.79 -137.34,-0.89 -25.76,-0.12 -51.53,-0.45 -77.3,-0.37 -15.45,0.05 -41.99,-0.13 -59.98,0.21 -0.88,-3.21 -0.64,-8.51 -0.69,-8.5 0,-0.32 0,-12.03 -0.01,-31.77 17.43,-0.45 46.23,-0.23 62.47,-0.28 25.17,-0.08 50.34,0.24 75.52,0.36 21.18,0.11 106.62,-0.79 138.24,1.1 -0.06,7.45 -0.12,14.89 -0.19,22.34 -0.02,2.07 -0.28,13.42 -0.72,17.8"
         style="fill:#ffffff;fill-opacity:1;fill-rule:nonzero;stroke:none"
         id="path66" /><path
         d="m 3906.49,2630.67 c -27,-1.6 -89.55,-0.78 -105.55,-0.88 -19.81,-0.12 -39.61,-0.45 -59.42,-0.37 -11.86,0.05 -32.26,-0.14 -46.09,0.2 -0.67,-3.2 -0.49,-8.5 -0.53,-8.5 0,-0.31 0,-12.02 -0.01,-31.76 13.4,-0.45 35.53,-0.23 48.01,-0.29 19.35,-0.08 38.7,0.25 58.05,0.37 16.28,0.11 81.94,-0.79 106.25,1.1 -0.05,7.44 -0.1,14.89 -0.15,22.33 -0.02,2.08 -0.21,13.42 -0.56,17.8"
         style="fill:#ffffff;fill-opacity:1;fill-rule:nonzero;stroke:none"
         id="path68" /><path
         d="m 4282.22,2564.54 c -74.96,-1.61 -248.57,-0.79 -292.98,-0.89 -54.97,-0.12 -109.94,-0.45 -164.92,-0.36 -32.94,0.04 -89.54,-0.14 -127.94,0.2 -1.88,-3.21 -1.36,-8.5 -1.46,-8.5 0,-0.32 -0.01,-12.03 -0.03,-31.76 37.19,-0.46 98.63,-0.24 133.25,-0.29 53.71,-0.08 107.41,0.24 161.11,0.37 45.19,0.1 227.44,-0.8 294.91,1.09 -0.14,7.45 -0.27,14.9 -0.42,22.34 -0.04,2.07 -0.58,13.42 -1.52,17.8"
         style="fill:#ffffff;fill-opacity:1;fill-rule:nonzero;stroke:none"
         id="path70" /><path
         d="m 4345.93,2498.41 c -83.09,-1.61 -275.52,-0.79 -324.76,-0.89 -60.94,-0.12 -121.87,-0.45 -182.81,-0.37 -36.51,0.05 -99.26,-0.13 -141.82,0.2 -2.08,-3.2 -1.5,-8.5 -1.62,-8.49 0,-0.32 -0.01,-12.03 -0.03,-31.77 41.22,-0.45 109.32,-0.23 147.72,-0.28 59.52,-0.09 119.04,0.24 178.57,0.36 50.11,0.11 252.12,-0.79 326.91,1.1 -0.16,7.44 -0.3,14.89 -0.46,22.34 -0.05,2.07 -0.65,13.42 -1.7,17.8"
         style="fill:#ffffff;fill-opacity:1;fill-rule:nonzero;stroke:none"
         id="path72" /><path
         d="m 4233.88,3212.65 c -26.31,-1.61 -87.23,-0.78 -102.82,-0.88 -19.29,-0.12 -38.58,-0.45 -57.88,-0.37 -11.56,0.05 -31.42,-0.14 -44.89,0.2 -0.66,-3.21 -0.48,-8.5 -0.52,-8.5 0,-0.31 0,-12.03 -0.01,-31.76 13.05,-0.46 34.61,-0.24 46.77,-0.29 18.85,-0.08 37.69,0.25 56.53,0.37 15.86,0.1 79.82,-0.8 103.5,1.1 -0.05,7.44 -0.1,14.89 -0.15,22.33 -0.02,2.07 -0.2,13.42 -0.53,17.8"
         style="fill:#6a8bcf;fill-opacity:1;fill-rule:nonzero;stroke:none"
         id="path74" /><path
         d="m 3832.65,2333.08 c -27.15,-1.62 -90.02,-0.79 -106.11,-0.89 -19.91,-0.13 -39.82,-0.45 -59.72,-0.37 -11.94,0.05 -32.44,-0.14 -46.34,0.2 -0.69,-3.2 -0.49,-8.5 -0.53,-8.5 0,-0.32 0,-12.03 -0.01,-31.76 13.47,-0.46 35.71,-0.24 48.26,-0.3 19.45,-0.07 38.89,0.26 58.34,0.38 16.37,0.1 82.38,-0.8 106.81,1.1 -0.05,7.44 -0.1,14.88 -0.16,22.33 -0.01,2.07 -0.2,13.42 -0.54,17.81"
         style="fill:#fbc15d;fill-opacity:1;fill-rule:nonzero;stroke:none"
         id="path76" /><path
         d="m 4001.51,2333.08 c -18.31,-1.62 -60.72,-0.79 -71.58,-0.89 -13.43,-0.13 -26.85,-0.45 -40.29,-0.37 -8.05,0.05 -21.88,-0.14 -31.25,0.2 -0.46,-3.2 -0.33,-8.5 -0.36,-8.5 0,-0.32 0,-12.03 -0.01,-31.76 9.09,-0.46 24.1,-0.24 32.56,-0.3 13.12,-0.07 26.24,0.26 39.36,0.38 11.04,0.1 55.57,-0.8 72.05,1.1 -0.04,7.44 -0.07,14.88 -0.11,22.33 -0.01,2.07 -0.13,13.42 -0.37,17.81"
         style="fill:#6a8bcf;fill-opacity:1;fill-rule:nonzero;stroke:none"
         id="path78" /><path
         d="m 4443.71,2333.08 c -53.09,-1.62 -176.03,-0.79 -207.49,-0.89 -38.93,-0.13 -77.86,-0.45 -116.8,-0.37 -23.33,0.05 -63.4,-0.14 -90.6,0.2 -1.33,-3.2 -0.96,-8.5 -1.04,-8.5 0,-0.32 0,-12.03 -0.02,-31.76 26.34,-0.46 69.85,-0.24 94.38,-0.3 38.03,-0.07 76.05,0.26 114.09,0.38 32.01,0.1 161.07,-0.8 208.86,1.1 -0.1,7.44 -0.2,14.88 -0.31,22.33 -0.02,2.07 -0.41,13.42 -1.07,17.81"
         style="fill:#6a8bcf;fill-opacity:1;fill-rule:nonzero;stroke:none"
         id="path80" /><path
         d="m 3843.78,1036.2 c 16.16,490.42 21.33,976.67 18.5,1477.86 -0.15,28.15 -2.9,56.32 -8.12,83.98 -5.21,27.67 -19.91,64.96 -48.07,64.8 -327.17,-1.87 -654.34,-3.74 -981.52,-5.6 -84.87,-0.49 -169.74,-0.98 -254.61,-1.46 -395.31,-2.26 -800.49,-2.24 -1192.97,-1.02 -27.87,0.09 -44.06,4.27 -65.89,-0.56 -19.14,-4.24 -38.89,-8.76 -54.67,-20.38 -31.12,-22.93 -47.24,-77.07 -45.97,-115.7 16.27,-496.26 18.12,-993 5.55,-1489.38 109.07,-27.61 222.4,-10.95 334.91,-10.05 773.33,6.23 1529.33,-20.1 2292.86,17.51"
         style="fill:#243659;fill-opacity:1;fill-rule:nonzero;stroke:none"
         id="path82" /><path
         d="m 2358.21,853.102 c 205.49,6.32 1041.16,8.128 1115.72,6.32 225.99,-5.453 330.03,-8.274 556,-1.602 5.34,-0.808 11.01,-0.859 15.93,1.36 4.93,2.23 8.61,7.121 8.28,12.511 -2.8,44.411 -0.66,91.168 -2.12,135.549 -0.23,7.06 1,14.49 -3.37,20.06 -4.36,5.55 -13.48,8.93 -20.55,8.93 -1013.03,0.39 -1937.05,-11.31 -3044.741,-0.03 -18.246,0.19 -36.675,-8.85 -36.695,-22.57 -0.062,-47.009 0.035,-90.259 -0.82,-142.939 -0.16,-9.992 6.851,-19.91 16.836,-20.16 236.96,-6.14 793.16,1.918 858.82,1.367 127.96,-1.066 408.75,2.274 536.71,1.204"
         style="fill:#405686;fill-opacity:1;fill-rule:nonzero;stroke:none"
         id="path84" /><path
         d="m 2201.39,1010.03 c 3.58,-15.928 23.63,-20.87 39.94,-21.518 27.22,-1.102 518.34,-12.602 712.93,-1.211 3.86,0.238 34.19,4.277 36.77,7.148 2.53,2.813 2.58,6.991 2.49,10.761 -0.27,9.51 -0.64,19.01 -0.97,28.52 -262.33,-1.01 -525.1,-2 -793.41,-2.33 -0.22,-6.8 0.61,-14.1 2.25,-21.37"
         style="fill:#243659;fill-opacity:1;fill-rule:nonzero;stroke:none"
         id="path86" /><path
         d="m 3776.74,1107.66 c 11.67,485.09 6.86,1466.4 6.86,1470.57 -171.39,0.32 -342.79,0.6 -514.18,0.87 -87.44,0.14 -174.87,0.28 -262.3,0.42 -573.72,0.91 -1151.84,-4.82 -1725.44,-16.26 7.57,-485.18 5.51,-970.51 -6.17,-1455.6 826.17,9.62 1675.01,5.02 2501.23,0"
         style="fill:#ffffff;fill-opacity:1;fill-rule:nonzero;stroke:none"
         id="path88" /><path
         d="m 2679.18,2188.26 c -0.96,55.63 -1.89,111.24 -2.93,166.87 -0.12,5.91 -1.78,43 -4.69,47.02 -2.73,8.95 -561.61,0.6 -671.38,1.81 -107.78,1.2 -644.82,-2.37 -647.89,-2.46 -14.34,-0.41 -11.76,-26.39 -12.09,-26.38 0.02,-3.93 -0.8,-743.95 -0.33,-1115.23 3.23,-4.86 231.6,-3.57 337.58,-3.76 110.23,-0.19 220.46,0.61 330.69,0.9 108.23,0.3 599.21,-2.69 652.61,5.59 1.59,0.24 2.76,1 4.19,1.43 4.59,0.75 8.82,2.56 12.14,5.27 1.68,174.24 2.31,348.67 0.57,521.28 -1.35,133.27 -0.1,265.57 1.53,397.66"
         style="fill:#405686;fill-opacity:1;fill-rule:nonzero;stroke:none"
         id="path90" /><path
         d="m 2677.2,2301 c -0.33,18.04 -0.61,36.08 -0.95,54.13 -0.12,5.91 -1.78,43 -4.69,47.02 -2.73,8.95 -561.61,0.6 -671.38,1.81 -107.78,1.2 -644.82,-2.37 -647.89,-2.46 -14.34,-0.41 -11.76,-26.39 -12.09,-26.38 0,-0.76 -0.03,-29.14 -0.07,-76.99 84.37,-1.1 223.78,-0.56 302.37,-0.69 121.84,-0.19 243.69,0.6 365.52,0.89 102.57,0.25 516.09,-1.92 669.18,2.67"
         style="fill:#a53ea5;fill-opacity:1;fill-rule:nonzero;stroke:none"
         id="path92" /><path
         d="m 2590.45,2336.64 c -4.41,8.11 -5.29,16.63 -1.69,25.13 0.86,2.02 3.27,5.74 4.79,7.32 1.15,1.19 2.64,2.8 4,3.73 3.06,2.1 5.42,3.41 8.98,4.44 1.93,0.54 4.35,1.29 6.34,1.42 2.23,0.15 4.31,-0.02 6.52,-0.26 6.31,-0.71 12.06,-4.05 16.45,-8.64 7.82,-8.22 10.07,-20.41 4.69,-31.6 -8.02,-16.68 -26.87,-20.62 -40.79,-11.53 -3.85,2.51 -7.09,5.96 -9.29,9.99"
         style="fill:#fbc15d;fill-opacity:1;fill-rule:nonzero;stroke:none"
         id="path94" /><path
         d="m 2506.45,2336.64 c -4.41,8.11 -5.29,16.63 -1.69,25.13 0.86,2.02 3.27,5.74 4.8,7.32 1.14,1.19 2.63,2.8 3.99,3.73 3.06,2.1 5.42,3.41 8.99,4.44 1.91,0.54 4.34,1.29 6.33,1.42 2.22,0.15 4.31,-0.02 6.53,-0.26 6.31,-0.71 12.06,-4.05 16.44,-8.64 7.82,-8.22 10.06,-20.41 4.68,-31.6 -8.01,-16.68 -26.85,-20.62 -40.79,-11.53 -3.84,2.51 -7.08,5.96 -9.28,9.99"
         style="fill:#ffffff;fill-opacity:1;fill-rule:nonzero;stroke:none"
         id="path96" /><path
         d="m 2422.45,2336.64 c -4.41,8.11 -5.29,16.63 -1.69,25.13 0.86,2.02 3.26,5.74 4.79,7.32 1.15,1.19 2.64,2.8 4,3.73 3.06,2.1 5.42,3.41 8.99,4.44 1.91,0.54 4.34,1.29 6.33,1.42 2.22,0.15 4.31,-0.02 6.53,-0.26 6.3,-0.71 12.06,-4.05 16.44,-8.64 7.82,-8.22 10.07,-20.41 4.68,-31.6 -8.01,-16.68 -26.86,-20.62 -40.79,-11.53 -3.84,2.51 -7.08,5.96 -9.28,9.99"
         style="fill:#ffffff;fill-opacity:1;fill-rule:nonzero;stroke:none"
         id="path98" /><path
         d="m 2143.42,2235.69 c -92.68,-1.82 -307.32,-0.9 -362.23,-1 -67.97,-0.15 -135.94,-0.52 -203.91,-0.42 -40.73,0.05 -110.71,-0.16 -158.18,0.22 -2.32,-3.64 -1.68,-9.67 -1.81,-9.67 0,-0.35 -0.01,-13.67 -0.03,-36.12 45.97,-0.52 121.93,-0.27 164.76,-0.33 66.39,-0.09 132.78,0.28 199.17,0.42 55.89,0.12 281.22,-0.9 364.64,1.25 -0.18,8.47 -0.34,16.93 -0.52,25.41 -0.06,2.35 -0.72,15.26 -1.89,20.24"
         style="fill:#d757b3;fill-opacity:1;fill-rule:nonzero;stroke:none"
         id="path100" /><path
         d="m 1802.73,2131.01 c -31.57,-1.27 -104.71,-0.63 -123.42,-0.71 -23.16,-0.09 -46.32,-0.35 -69.48,-0.29 -13.87,0.04 -37.72,-0.11 -53.89,0.17 -0.79,-2.54 -0.57,-6.73 -0.62,-6.73 0.01,-0.25 0,-9.51 -0.01,-25.13 15.67,-0.35 41.55,-0.19 56.14,-0.22 22.62,-0.06 45.24,0.19 67.86,0.29 19.04,0.08 95.82,-0.63 124.24,0.87 -0.05,5.89 -0.11,11.78 -0.17,17.66 -0.02,1.64 -0.25,10.62 -0.65,14.09"
         style="fill:#fbc15d;fill-opacity:1;fill-rule:nonzero;stroke:none"
         id="path102" /><path
         d="m 2313.1,2055.78 c -76.31,-1.27 -253.05,-0.62 -298.27,-0.7 -55.97,-0.1 -111.93,-0.35 -167.9,-0.29 -33.54,0.03 -91.16,-0.11 -130.25,0.16 -1.91,-2.54 -1.38,-6.73 -1.48,-6.73 0,-0.24 -0.01,-9.51 -0.03,-25.12 37.85,-0.37 100.4,-0.19 135.66,-0.23 54.67,-0.06 109.34,0.2 164,0.29 46.02,0.08 231.56,-0.62 300.25,0.87 -0.14,5.89 -0.28,11.78 -0.43,17.67 -0.04,1.64 -0.59,10.61 -1.55,14.08"
         style="fill:#ffffff;fill-opacity:1;fill-rule:nonzero;stroke:none"
         id="path104" /><path
         d="m 2066.62,1995.61 c -44.86,-1.28 -148.74,-0.63 -175.32,-0.71 -32.9,-0.1 -65.79,-0.36 -98.69,-0.29 -19.71,0.04 -53.58,-0.11 -76.56,0.16 -1.12,-2.53 -0.81,-6.73 -0.87,-6.72 0,-0.26 0,-9.51 -0.01,-25.13 22.25,-0.36 59.01,-0.19 79.73,-0.22 32.14,-0.07 64.27,0.19 96.4,0.28 27.05,0.09 136.11,-0.63 176.48,0.88 -0.08,5.89 -0.16,11.77 -0.25,17.66 -0.03,1.63 -0.35,10.62 -0.91,14.09"
         style="fill:#6a8bcf;fill-opacity:1;fill-rule:nonzero;stroke:none"
         id="path106" /><path
         d="m 2213.75,1935.42 c -63.63,-1.27 -211,-0.63 -248.71,-0.7 -46.67,-0.1 -93.33,-0.35 -140,-0.3 -27.97,0.04 -76.02,-0.1 -108.61,0.17 -1.6,-2.54 -1.15,-6.73 -1.24,-6.73 0,-0.24 -0.01,-9.51 -0.02,-25.12 31.56,-0.36 83.72,-0.18 113.12,-0.23 45.59,-0.06 91.17,0.2 136.76,0.29 38.37,0.09 193.08,-0.62 250.36,0.87 -0.12,5.89 -0.23,11.78 -0.36,17.67 -0.04,1.64 -0.49,10.61 -1.3,14.08"
         style="fill:#ffffff;fill-opacity:1;fill-rule:nonzero;stroke:none"
         id="path108" /><path
         d="m 2313.1,1875.24 c -76.31,-1.27 -253.05,-0.62 -298.27,-0.7 -55.97,-0.1 -111.93,-0.36 -167.9,-0.29 -33.54,0.04 -91.16,-0.11 -130.25,0.15 -1.91,-2.52 -1.38,-6.71 -1.48,-6.71 0,-0.26 -0.01,-9.52 -0.03,-25.13 37.85,-0.36 100.4,-0.19 135.66,-0.23 54.67,-0.06 109.34,0.2 164,0.3 46.02,0.08 231.56,-0.64 300.25,0.87 -0.14,5.89 -0.28,11.77 -0.43,17.66 -0.04,1.64 -0.59,10.62 -1.55,14.08"
         style="fill:#ffffff;fill-opacity:1;fill-rule:nonzero;stroke:none"
         id="path110" /><path
         d="m 2210,1815.06 c -63.15,-1.27 -209.41,-0.62 -246.84,-0.7 -46.31,-0.09 -92.63,-0.36 -138.95,-0.29 -27.76,0.04 -75.44,-0.11 -107.79,0.16 -1.58,-2.54 -1.15,-6.73 -1.23,-6.73 0,-0.24 -0.01,-9.5 -0.02,-25.12 31.32,-0.36 83.09,-0.18 112.27,-0.23 45.25,-0.06 90.48,0.19 135.73,0.29 38.08,0.09 191.63,-0.62 248.48,0.87 -0.12,5.89 -0.23,11.78 -0.36,17.67 -0.03,1.64 -0.48,10.61 -1.29,14.08"
         style="fill:#6a8bcf;fill-opacity:1;fill-rule:nonzero;stroke:none"
         id="path112" /><path
         d="m 1802.73,1694.7 c -31.57,-1.27 -104.71,-0.62 -123.42,-0.7 -23.16,-0.09 -46.32,-0.36 -69.48,-0.29 -13.87,0.04 -37.72,-0.11 -53.89,0.16 -0.79,-2.53 -0.57,-6.73 -0.62,-6.72 0.01,-0.26 0,-9.51 -0.01,-25.13 15.67,-0.36 41.55,-0.18 56.14,-0.22 22.62,-0.07 45.24,0.19 67.86,0.28 19.04,0.09 95.82,-0.62 124.24,0.88 -0.05,5.89 -0.11,11.78 -0.17,17.67 -0.02,1.63 -0.25,10.61 -0.65,14.07"
         style="fill:#fbc15d;fill-opacity:1;fill-rule:nonzero;stroke:none"
         id="path114" /><path
         d="m 1974.85,1694.7 c -18.02,-1.27 -59.76,-0.62 -70.44,-0.7 -13.21,-0.09 -26.43,-0.36 -39.65,-0.29 -7.92,0.04 -21.53,-0.11 -30.76,0.16 -0.45,-2.53 -0.32,-6.73 -0.35,-6.72 0,-0.26 0,-9.51 -0.01,-25.13 8.94,-0.36 23.71,-0.18 32.04,-0.22 12.91,-0.07 25.82,0.19 38.73,0.28 10.87,0.09 54.69,-0.62 70.91,0.88 -0.04,5.89 -0.07,11.78 -0.11,17.67 -0.01,1.63 -0.13,10.61 -0.36,14.07"
         style="fill:#6a8bcf;fill-opacity:1;fill-rule:nonzero;stroke:none"
         id="path116" /><path
         d="m 2313.1,1619.47 c -76.31,-1.27 -253.05,-0.61 -298.27,-0.69 -55.97,-0.1 -111.93,-0.36 -167.9,-0.29 -33.54,0.04 -91.16,-0.11 -130.25,0.15 -1.91,-2.54 -1.38,-6.73 -1.48,-6.72 0,-0.25 -0.01,-9.51 -0.03,-25.12 37.85,-0.36 100.4,-0.19 135.66,-0.23 54.67,-0.07 109.34,0.2 164,0.29 46.02,0.08 231.56,-0.63 300.25,0.87 -0.14,5.89 -0.28,11.77 -0.43,17.67 -0.04,1.63 -0.59,10.62 -1.55,14.07"
         style="fill:#ffffff;fill-opacity:1;fill-rule:nonzero;stroke:none"
         id="path118" /><path
         d="m 2274.36,1559.3 c -71.37,-1.27 -236.66,-0.63 -278.95,-0.71 -52.33,-0.09 -104.67,-0.35 -157.02,-0.29 -31.36,0.04 -85.25,-0.11 -121.81,0.17 -1.79,-2.54 -1.29,-6.73 -1.39,-6.73 0.01,-0.25 -0.01,-9.51 -0.02,-25.12 35.4,-0.36 93.89,-0.19 126.87,-0.23 51.13,-0.06 102.26,0.19 153.38,0.29 43.04,0.09 216.56,-0.63 280.8,0.87 -0.14,5.89 -0.26,11.78 -0.4,17.67 -0.04,1.64 -0.56,10.61 -1.46,14.08"
         style="fill:#ffffff;fill-opacity:1;fill-rule:nonzero;stroke:none"
         id="path120" /><path
         d="m 2275.61,1499.12 c -71.53,-1.28 -237.19,-0.62 -279.57,-0.7 -52.46,-0.1 -104.91,-0.36 -157.37,-0.29 -31.44,0.03 -85.45,-0.11 -122.08,0.15 -1.8,-2.53 -1.3,-6.72 -1.4,-6.72 0.01,-0.25 -0.01,-9.51 -0.02,-25.12 35.48,-0.37 94.1,-0.19 127.15,-0.23 51.24,-0.07 102.49,0.2 153.72,0.29 43.14,0.08 217.05,-0.63 281.43,0.87 -0.14,5.89 -0.26,11.78 -0.4,17.67 -0.04,1.64 -0.56,10.61 -1.46,14.08"
         style="fill:#ffffff;fill-opacity:1;fill-rule:nonzero;stroke:none"
         id="path122" /><path
         d="m 2313.1,1438.94 c -76.31,-1.27 -253.05,-0.63 -298.27,-0.71 -55.97,-0.09 -111.93,-0.35 -167.9,-0.28 -33.54,0.03 -91.16,-0.12 -130.25,0.16 -1.91,-2.54 -1.38,-6.73 -1.48,-6.73 0,-0.25 -0.01,-9.51 -0.03,-25.12 37.85,-0.36 100.4,-0.19 135.66,-0.23 54.67,-0.06 109.34,0.19 164,0.29 46.02,0.09 231.56,-0.63 300.25,0.87 -0.14,5.89 -0.28,11.78 -0.43,17.66 -0.04,1.64 -0.59,10.62 -1.55,14.09"
         style="fill:#6a8bcf;fill-opacity:1;fill-rule:nonzero;stroke:none"
         id="path124" /><path
         d="m 2210,1378.76 c -63.15,-1.27 -209.41,-0.62 -246.84,-0.7 -46.31,-0.1 -92.63,-0.35 -138.95,-0.3 -27.76,0.04 -75.44,-0.1 -107.79,0.16 -1.58,-2.53 -1.15,-6.72 -1.23,-6.72 0,-0.24 -0.01,-9.51 -0.02,-25.13 31.32,-0.36 83.09,-0.18 112.27,-0.22 45.25,-0.07 90.48,0.2 135.73,0.29 38.08,0.08 191.63,-0.62 248.48,0.87 -0.12,5.89 -0.23,11.78 -0.36,17.67 -0.03,1.64 -0.48,10.61 -1.29,14.08"
         style="fill:#ffffff;fill-opacity:1;fill-rule:nonzero;stroke:none"
         id="path126" /><path
         d="m 3503.91,2308.07 c -0.09,-0.02 -0.19,-0.02 -0.28,-0.04 -1.27,18.64 -22.13,30.17 -40.7,34.95 -31.02,7.99 -63.32,9.21 -95.32,10.39 -124.5,4.59 -249.8,9.13 -373.14,-8.43 -22.44,-3.19 -46.31,-7.88 -62.31,-23.91 -4.17,-4.18 -7.77,-9.25 -8.71,-15.08 -0.12,-0.74 -0.11,-1.44 -0.17,-2.16 -0.14,-0.02 -0.28,-0.04 -0.43,-0.06 -0.54,-145.61 -1.06,-291.22 -1.6,-436.83 -0.21,-56.93 -0.41,-113.88 1.45,-170.79 0.22,-0.06 0.46,-0.11 0.7,-0.18 -11.66,-87.74 472.49,-43.42 527.97,-35.83 23.15,3.17 52.28,13.23 52.53,36.61 0,0.09 -0.04,0.16 -0.04,0.24 0.07,0 0.13,-0.02 0.2,-0.02 1.44,78.09 1.56,157.46 3,235.53 2.29,124.48 2.59,251.24 -3.15,375.61"
         style="fill:#d757b3;fill-opacity:1;fill-rule:nonzero;stroke:none"
         id="path128" /><path
         d="m 3030.83,1652.17 c -18.99,1.32 -38.02,3.47 -56.47,8.36 -18.02,4.76 -33.07,12.92 -48.72,22.15 0.6,0.52 1.01,1.3 1.06,2.34 3.22,70.94 1.99,142.21 1.72,213.28 27.98,-19.15 66.05,-25.96 98.7,-31.15 36.33,-5.79 73.18,-8.72 109.9,-10.64 78.5,-4.1 157.8,-1.48 235.94,7.02 43.12,4.69 85.97,11.51 128.49,20.08 -0.02,-21.38 0.06,-42.77 -0.07,-64.16 -0.29,-45.93 -1.48,-91.88 -0.84,-137.82 -0.57,0.04 -1.14,0.07 -1.78,-0.1 -151.33,-39.94 -312.69,-40.14 -467.93,-29.36 z m -19.33,691.79 c 41.15,4.88 82.49,7.91 123.89,9.45 81.28,3.03 162.69,0.11 243.74,-6.33 22.45,-1.78 45,-3.5 67.36,-6.24 19.27,-2.37 43.21,-9.86 50.17,-28.93 -93.21,-25.45 -189.53,-38.35 -286.17,-38.3 -48.65,0.03 -97.38,3.24 -145.6,9.86 -23.94,3.29 -47.79,7.4 -71.46,12.31 -21.25,4.41 -42.6,10.98 -64.07,14.16 19.03,24.59 52.91,30.54 82.14,34.02 z m -83.18,-417.67 c 0.07,58.41 0.07,116.83 0.05,175.23 44.78,-14.3 92.68,-21.22 139.23,-27.02 48.51,-6.06 97.38,-9.35 146.28,-9.91 48.91,-0.56 97.8,1.8 146.44,6.99 23.24,2.49 46.43,5.59 69.5,9.32 23.33,3.77 47.53,7.12 70.27,13.77 0.89,-67.13 1.36,-134.27 1.36,-201.42 -0.12,-0.01 -0.22,0.03 -0.36,0 -96.4,-19.12 -195.55,-29.91 -293.92,-28.29 -47.97,0.78 -96.04,3.35 -143.73,8.55 -23.49,2.56 -46.92,6.04 -69.89,11.63 -22.34,5.44 -43.22,14.6 -65.16,21.17 -0.02,6.66 -0.08,13.33 -0.07,19.98 z m 568.26,375.25 c 1.33,-66.04 2.48,-132.08 3.38,-198.12 -0.18,-0.01 -0.35,0.05 -0.55,0.02 -24.19,-3.28 -48.1,-9.16 -72.24,-12.91 -23.71,-3.68 -47.52,-6.66 -71.41,-8.98 -47.12,-4.57 -94.55,-6.6 -141.88,-6.15 -47.38,0.45 -94.71,3.55 -141.73,9.24 -48.24,5.85 -95.46,16.39 -143.39,23.9 -0.14,0.02 -0.25,-0.01 -0.38,0 -0.01,20.47 0.06,40.95 0.02,61.44 -0.09,44.13 -0.75,88.31 -0.07,132.44 15.69,-6.07 32.88,-9.57 49.19,-13.24 18.43,-4.14 37.01,-7.65 55.63,-10.73 36.96,-6.13 74.25,-10.39 111.63,-12.78 75.9,-4.85 152.21,-1.34 227.43,9.78 41.95,6.21 83.45,15.02 124.37,26.09 z m 14.79,-378.21 c -0.07,81.35 -0.82,162.68 -2.36,244 -0.89,46.7 -1.99,93.4 -3.65,140.08 -0.07,1.87 -1.08,3.06 -2.37,3.7 -4.53,28.33 -41.52,35.68 -66.7,38.43 -46.8,5.12 -93.72,9.06 -140.74,11.36 -94.67,4.62 -189.86,3 -284.05,-8.12 -33.67,-3.97 -70.18,-7.29 -90,-37.75 -1.34,-0.79 -3.4,-5.5 -3.37,-7.53 1.5,-80.37 0.05,-160.88 0.15,-241.27 0.09,-81.23 0.14,-162.46 0.24,-243.69 0.01,-5.65 0,-11.3 -0.01,-16.95 -1.76,-17.84 -2.11,-36.13 -2.46,-53.79 -0.22,-11.58 -0.38,-23.19 -0.33,-34.77 0.04,-10.69 0.68,-34.93 1.6,-35.98 20.73,-23.46 56.63,-31.57 86.24,-35.59 38.3,-5.21 77.45,-5.78 116.03,-7.12 82.38,-2.85 165.15,-1.96 247.1,7.73 45.48,5.4 90.57,13.67 134.85,25.36 2.36,0.62 3.46,2.33 3.66,4.19 1.68,0.28 3.22,1.48 3.33,3.72 3.9,81.15 2.9,162.76 2.84,243.99"
         style="fill:#f18ecc;fill-opacity:1;fill-rule:nonzero;stroke:none"
         id="path130" /><g
         id="g132"
         transform="scale(10)"><text
           transform="matrix(1,0,0,-1,293.639,129.596)"
           style="font-variant:normal;font-weight:bold;font-size:31.6003px;font-family:Rubik;-inkscape-font-specification:Rubik-Bold;writing-mode:lr-tb;fill:#405686;fill-opacity:1;fill-rule:nonzero;stroke:none"
           id="text136"><tspan
             x="0 20.950998 43.450413"
             y="0"
             sodipodi:role="line"
             id="tspan134">SQL</tspan></text></g><path
         d="m 3025.32,3826.85 c -0.95,58.89 -1.87,117.78 -2.91,176.69 -0.12,6.25 -1.77,45.53 -4.67,49.79 -2.71,9.48 -558.51,0.63 -667.68,1.9 -107.19,1.27 -641.27,-2.52 -644.32,-2.61 -14.26,-0.44 -11.7,-27.95 -12.03,-27.94 0.03,-4.15 -0.8,-787.76 -0.34,-1180.9 3.21,-5.15 230.33,-3.78 335.71,-3.98 109.63,-0.2 219.26,0.65 328.88,0.97 107.64,0.31 595.91,-2.85 649.02,5.91 1.58,0.26 2.74,1.07 4.16,1.53 4.56,0.8 8.77,2.7 12.07,5.57 1.68,184.52 2.32,369.21 0.58,551.98 -1.34,141.12 -0.1,281.22 1.53,421.09"
         style="fill:#fbc15d;fill-opacity:1;fill-rule:nonzero;stroke:none"
         id="path138" /><path
         d="m 2992.47,2845.21 c 6.34,0.45 11.26,0.94 14.51,1.47 1.58,0.26 2.74,1.07 4.16,1.53 4.56,0.8 8.77,2.7 12.07,5.57 1.6,175.38 2.19,350.85 0.75,524.75 -4.88,3.11 -9.68,6.31 -14.75,9.21 -21.33,12.23 -43.68,22.09 -66.51,30.56 -15.3,47.61 -36.38,112.93 -39.02,119.62 -4.19,10.65 -10.4,73.98 -19.2,79.03 -8.8,5.05 -222.71,7.51 -233.04,-0.59 -8.1,-6.34 -41.66,-144.29 -55.92,-204.14 -56.77,-22.86 -108.37,-55.99 -153.13,-96.64 -51.41,15.15 -201.21,58.83 -211.64,56.47 -12.61,-2.85 -111.91,-185.36 -116.01,-202.12 -4.11,-16.76 73.55,-70.5 97,-94.27 12,-12.15 38.44,-38.51 63.05,-62.88 -2.3,-13.42 -4.08,-26.98 -5.3,-40.63 -3.78,-42.31 -1.35,-84.68 6.07,-126.18 -1.77,-1.75 -3.67,-3.63 -5.62,-5.56 29.34,0.12 58.68,0.27 88.02,0.36 34.99,0.1 110.24,-0.16 197.66,-0.27 -27.51,69.21 -21.58,149.64 19.48,215.59 56.88,91.36 173.14,130.53 274.86,96.63 99.75,-33.24 166.94,-136.63 158.6,-241.43 -1.77,-22.36 -7.38,-44.72 -16.09,-66.08"
         style="fill:#f68c1e;fill-opacity:1;fill-rule:nonzero;stroke:none"
         id="path140" /><path
         d="m 2473.04,3699.43 c -4.49,6.67 -18.66,23.46 -18.66,23.46 l -139.16,130.07 c 10.87,64.38 6.28,128.28 -9.34,190.98 3.7,3.76 7.51,7.61 11.36,11.51 -66.05,0.2 -186.09,-0.26 -302.44,-0.88 16.64,-37.03 24.51,-78.09 21.22,-119.35 -5.73,-72.1 -48.82,-144.39 -110.41,-185.33 -37.39,-32.89 -97.42,-45.63 -143.95,-44.41 -30.6,0.8 -60.43,7.7 -88.19,19.52 -0.1,-143.84 -0.2,-321.6 -0.23,-492.07 3.8,0.49 6.49,1.03 6.49,1.03 0,0 198.14,-5.5 203.5,0.08 5.37,5.58 8.63,3.71 11.67,12.78 2.74,8.15 43.18,154.82 49.41,192.14 66.08,20 126.89,52.58 175.74,98.11 70.74,-18.95 207.98,-54.98 211.14,-49.92 4.26,6.81 15.47,26.35 15.47,26.35 0,0 110.85,179.26 106.38,185.93"
         style="fill:#6a8bcf;fill-opacity:1;fill-rule:nonzero;stroke:none"
         id="path142" /><path
         d="m 2011.41,3906.18 c 115.5,-0.2 231,0.64 346.49,0.96 105.63,0.29 559.15,-2.43 666.03,4.27 -0.5,30.7 -0.98,61.42 -1.52,92.13 -0.12,6.25 -1.77,45.53 -4.67,49.79 -2.71,9.48 -558.51,0.63 -667.68,1.9 -107.19,1.27 -641.27,-2.52 -644.32,-2.61 -14.26,-0.44 -11.7,-27.95 -12.03,-27.94 0.01,-0.98 -0.03,-45.12 -0.1,-117.15 71.56,-1.96 232.49,-1.2 317.8,-1.35"
         style="fill:#a53ea5;fill-opacity:1;fill-rule:nonzero;stroke:none"
         id="path144" /><path
         d="m 2926.66,3973.27 c -4.95,9.08 -5.94,18.63 -1.9,28.16 0.96,2.27 3.66,6.43 5.38,8.2 1.28,1.34 2.95,3.14 4.47,4.19 3.44,2.35 6.07,3.82 10.08,4.97 2.15,0.61 4.86,1.46 7.1,1.6 2.49,0.15 4.82,-0.02 7.31,-0.3 7.07,-0.8 13.52,-4.54 18.43,-9.7 8.77,-9.19 11.29,-22.85 5.25,-35.4 -8.98,-18.7 -30.1,-23.12 -45.72,-12.93 -4.31,2.81 -7.94,6.68 -10.4,11.21"
         style="fill:#fbc15d;fill-opacity:1;fill-rule:nonzero;stroke:none"
         id="path146" /><path
         d="m 2832.5,3973.27 c -4.94,9.08 -5.94,18.63 -1.9,28.16 0.96,2.27 3.67,6.43 5.38,8.2 1.28,1.34 2.95,3.14 4.48,4.19 3.43,2.35 6.07,3.82 10.07,4.97 2.15,0.61 4.87,1.46 7.1,1.6 2.5,0.15 4.83,-0.02 7.31,-0.3 7.07,-0.8 13.53,-4.54 18.43,-9.7 8.77,-9.19 11.29,-22.85 5.25,-35.4 -8.98,-18.7 -30.1,-23.12 -45.72,-12.93 -4.31,2.81 -7.94,6.68 -10.4,11.21"
         style="fill:#ffffff;fill-opacity:1;fill-rule:nonzero;stroke:none"
         id="path148" /><path
         d="m 2738.34,3973.27 c -4.94,9.08 -5.93,18.63 -1.89,28.16 0.95,2.27 3.66,6.43 5.37,8.2 1.29,1.34 2.96,3.14 4.48,4.19 3.43,2.35 6.07,3.82 10.07,4.97 2.15,0.61 4.87,1.46 7.1,1.6 2.5,0.15 4.83,-0.02 7.31,-0.3 7.08,-0.8 13.53,-4.54 18.44,-9.7 8.76,-9.19 11.28,-22.85 5.25,-35.4 -8.99,-18.7 -30.11,-23.12 -45.72,-12.93 -4.32,2.81 -7.95,6.68 -10.41,11.21"
         style="fill:#ffffff;fill-opacity:1;fill-rule:nonzero;stroke:none"
         id="path150" /><path
         d="m 1461.68,3306.88 c -0.79,28.9 -1.54,57.79 -2.4,86.68 -0.09,3.07 -1.44,22.33 -3.8,24.42 -2.21,4.65 -455.15,0.36 -544.109,1 -87.348,0.63 -522.582,-1.18 -525.066,-1.22 -11.621,-0.21 -9.532,-13.71 -9.801,-13.71 0.019,-2.03 -0.582,-386.41 -0.172,-579.25 2.621,-2.52 187.699,-1.88 273.586,-1.98 89.34,-0.11 178.672,0.3 268.008,0.44 87.704,0.14 485.614,-1.45 528.894,2.84 1.29,0.13 2.23,0.53 3.39,0.75 3.72,0.39 7.15,1.32 9.84,2.73 1.35,90.51 1.85,181.1 0.42,270.76 -1.11,69.22 -0.11,137.94 1.21,206.54"
         style="fill:#ffffff;fill-opacity:1;fill-rule:nonzero;stroke:none"
         id="path152" /><path
         d="m 1455.48,3417.98 c -2.21,4.65 -455.15,0.36 -544.109,1 -87.348,0.63 -522.582,-1.18 -525.066,-1.22 -11.617,-0.21 -9.532,-13.71 -9.801,-13.71 0.004,-0.66 -0.055,-42.51 -0.121,-105.08 58.351,-0.26 189.551,-0.2 259.105,-0.23 94.18,-0.05 188.356,0.03 282.524,0.05 86.298,0.01 457.308,-0.43 543.528,0.41 0.05,2.56 0.09,5.13 0.14,7.69 -0.79,28.89 -1.54,57.78 -2.4,86.67 -0.09,3.07 -1.44,22.33 -3.8,24.42"
         style="fill:#a53ea5;fill-opacity:1;fill-rule:nonzero;stroke:none"
         id="path154" /><path
         d="m 1365.79,3343.97 c -4.94,9.08 -5.93,18.63 -1.9,28.16 0.97,2.27 3.66,6.43 5.38,8.21 1.28,1.33 2.95,3.14 4.48,4.18 3.43,2.35 6.07,3.82 10.07,4.97 2.15,0.61 4.87,1.46 7.1,1.6 2.5,0.16 4.83,-0.02 7.32,-0.3 7.07,-0.79 13.52,-4.54 18.43,-9.69 8.76,-9.2 11.28,-22.86 5.25,-35.41 -8.99,-18.69 -30.11,-23.12 -45.72,-12.93 -4.31,2.82 -7.94,6.68 -10.41,11.21"
         style="fill:#fbc15d;fill-opacity:1;fill-rule:nonzero;stroke:none"
         id="path156" /><path
         d="m 1271.64,3343.97 c -4.95,9.08 -5.94,18.63 -1.9,28.16 0.96,2.27 3.66,6.43 5.37,8.21 1.29,1.33 2.96,3.14 4.48,4.18 3.43,2.35 6.07,3.82 10.07,4.97 2.15,0.61 4.87,1.46 7.1,1.6 2.5,0.16 4.83,-0.02 7.32,-0.3 7.07,-0.79 13.52,-4.54 18.42,-9.69 8.77,-9.2 11.29,-22.86 5.26,-35.41 -8.99,-18.69 -30.11,-23.12 -45.72,-12.93 -4.31,2.82 -7.94,6.68 -10.4,11.21"
         style="fill:#ffffff;fill-opacity:1;fill-rule:nonzero;stroke:none"
         id="path158" /><path
         d="m 1177.48,3343.97 c -4.95,9.08 -5.94,18.63 -1.9,28.16 0.96,2.27 3.66,6.43 5.37,8.21 1.29,1.33 2.96,3.14 4.48,4.18 3.43,2.35 6.08,3.82 10.07,4.97 2.15,0.61 4.87,1.46 7.1,1.6 2.5,0.16 4.84,-0.02 7.32,-0.3 7.07,-0.79 13.52,-4.54 18.43,-9.69 8.76,-9.2 11.28,-22.86 5.25,-35.41 -8.98,-18.69 -30.1,-23.12 -45.72,-12.93 -4.31,2.82 -7.94,6.68 -10.4,11.21"
         style="fill:#ffffff;fill-opacity:1;fill-rule:nonzero;stroke:none"
         id="path160" /><path
         d="m 458.59,2825.86 c -24.875,1.67 -49.758,3.09 -74.649,4.44 2.055,72.66 0.332,145.58 0.18,218.27 -0.152,74.53 1.067,149.24 -0.973,223.74 -0.195,7.06 -10.828,7.08 -10.976,0 -1.551,-74.51 0.148,-149.21 0.484,-223.74 0.328,-73.5 -0.976,-147.24 1.664,-220.69 -1.578,-3.23 -0.023,-8.22 4.75,-8.52 26.5,-1.73 52.996,-3.35 79.52,-4.73 7.246,-0.37 7.168,10.75 0,11.23"
         style="fill:#c8dce4;fill-opacity:1;fill-rule:nonzero;stroke:none"
         id="path162" /><path
         d="m 1398.78,3179.05 c -0.69,18.06 -1.36,36.13 -2.11,54.19 -0.09,1.92 -1.28,13.97 -3.37,15.27 -1.96,2.91 -402.421,0.26 -481.073,0.66 -77.231,0.41 -462.047,-0.69 -464.239,-0.72 -10.273,-0.13 -8.425,-8.57 -8.668,-8.57 0.02,-1.27 -0.48,-241.6 -0.101,-362.18 2.312,-1.58 165.953,-1.19 241.886,-1.26 78.989,-0.08 157.973,0.17 236.958,0.25 77.55,0.09 429.357,-0.94 467.627,1.74 1.14,0.08 1.97,0.32 3,0.47 3.28,0.24 6.31,0.83 8.69,1.71 1.19,56.59 1.62,113.23 0.35,169.29 -0.98,43.28 -0.1,86.25 1.05,129.15"
         style="fill:#6a8bcf;fill-opacity:1;fill-rule:nonzero;stroke:none"
         id="path164" /><g
         id="g166"
         transform="scale(10)"><text
           transform="matrix(1,0,0,-1,49.852,300.197)"
           style="font-variant:normal;font-weight:600;font-size:19.224px;font-family:Rubik;-inkscape-font-specification:Rubik-SemiBold;writing-mode:lr-tb;fill:#ffffff;fill-opacity:1;fill-rule:nonzero;stroke:none"
           id="text170"><tspan
             x="0 9.8042402 15.110064 20.415236 25.72106 35.525299 45.541004 55.345242 60.651066 65.955864 71.261688"
             y="0"
             sodipodi:role="line"
             id="tspan168">&lt;...&gt;/&lt;...&gt;</tspan></text></g><path
         d="m 1475.71,4032.47 c -0.49,25.23 -0.95,50.45 -1.49,75.68 -0.05,2.68 -0.89,19.51 -2.37,21.33 -1.38,4.06 -284.24,0.28 -339.79,0.83 -54.56,0.55 -326.357,-1.07 -327.904,-1.11 -7.261,-0.18 -5.957,-11.97 -6.125,-11.97 0.012,-1.77 -0.39,-337.41 -0.144,-505.8 1.629,-2.21 117.215,-1.63 170.847,-1.71 55.796,-0.09 111.586,0.27 167.366,0.4 54.78,0.13 303.28,-1.23 330.3,2.52 0.81,0.11 1.39,0.46 2.12,0.66 2.32,0.34 4.46,1.15 6.14,2.38 0.85,79.03 1.17,158.14 0.28,236.43 -0.68,60.44 -0.05,120.45 0.77,180.36"
         style="fill:#ffffff;fill-opacity:1;fill-rule:nonzero;stroke:none"
         id="path172" /><path
         d="m 1433.38,3903.17 c -0.43,14.88 -0.84,29.75 -1.31,44.64 -0.05,1.57 -0.79,11.5 -2.07,12.58 -1.22,2.39 -248.77,0.19 -297.4,0.51 -47.74,0.33 -285.623,-0.6 -286.979,-0.62 -6.351,-0.11 -5.211,-7.06 -5.355,-7.06 0.007,-1.05 -0.317,-199.01 -0.09,-298.33 1.429,-1.3 102.59,-0.97 149.531,-1.02 48.833,-0.06 97.653,0.15 146.483,0.22 47.94,0.08 265.42,-0.75 289.08,1.46 0.7,0.07 1.21,0.27 1.85,0.39 2.03,0.2 3.91,0.68 5.38,1.4 0.73,46.62 1.01,93.28 0.22,139.45 -0.61,35.65 -0.06,71.04 0.66,106.38"
         style="fill:#d757b3;fill-opacity:1;fill-rule:nonzero;stroke:none"
         id="path174" /><path
         d="m 1471.85,4129.48 c -1.38,4.06 -284.24,0.28 -339.79,0.83 -54.56,0.55 -326.357,-1.07 -327.912,-1.11 -7.253,-0.18 -5.949,-11.97 -6.117,-11.97 0.004,-0.61 -0.043,-41.24 -0.093,-101.05 42.855,-0.49 113.062,-0.26 152.726,-0.32 61.796,-0.08 123.586,0.27 185.376,0.41 52.08,0.11 262.08,-0.88 339.51,1.21 0.07,4.98 0.09,10 0.16,14.99 -0.49,25.23 -0.95,50.45 -1.49,75.68 -0.05,2.67 -0.89,19.51 -2.37,21.33"
         style="fill:#a53ea5;fill-opacity:1;fill-rule:nonzero;stroke:none"
         id="path176" /><path
         d="m 1382.59,4060.11 c -4.94,9.09 -5.93,18.64 -1.9,28.16 0.97,2.28 3.66,6.44 5.37,8.21 1.29,1.34 2.96,3.15 4.49,4.18 3.42,2.36 6.07,3.83 10.07,4.98 2.14,0.61 4.86,1.45 7.09,1.59 2.5,0.16 4.84,-0.01 7.32,-0.29 7.07,-0.8 13.52,-4.54 18.43,-9.69 8.77,-9.2 11.29,-22.86 5.26,-35.41 -8.99,-18.7 -30.11,-23.13 -45.73,-12.93 -4.3,2.81 -7.94,6.68 -10.4,11.2"
         style="fill:#fbc15d;fill-opacity:1;fill-rule:nonzero;stroke:none"
         id="path178" /><path
         d="m 1288.43,4060.11 c -4.94,9.09 -5.93,18.64 -1.9,28.16 0.97,2.28 3.67,6.44 5.38,8.21 1.28,1.34 2.95,3.15 4.48,4.18 3.43,2.36 6.07,3.83 10.07,4.98 2.15,0.61 4.87,1.45 7.1,1.59 2.49,0.16 4.83,-0.01 7.31,-0.29 7.07,-0.8 13.52,-4.54 18.44,-9.69 8.76,-9.2 11.28,-22.86 5.25,-35.41 -8.99,-18.7 -30.11,-23.13 -45.72,-12.93 -4.31,2.81 -7.95,6.68 -10.41,11.2"
         style="fill:#ffffff;fill-opacity:1;fill-rule:nonzero;stroke:none"
         id="path180" /><path
         d="m 1194.27,4060.11 c -4.94,9.09 -5.93,18.64 -1.9,28.16 0.96,2.28 3.67,6.44 5.38,8.21 1.28,1.34 2.95,3.15 4.48,4.18 3.43,2.36 6.07,3.83 10.07,4.98 2.15,0.61 4.87,1.45 7.1,1.59 2.49,0.16 4.83,-0.01 7.32,-0.29 7.07,-0.8 13.52,-4.54 18.43,-9.69 8.76,-9.2 11.28,-22.86 5.25,-35.41 -8.98,-18.7 -30.11,-23.13 -45.72,-12.93 -4.31,2.81 -7.95,6.68 -10.41,11.2"
         style="fill:#ffffff;fill-opacity:1;fill-rule:nonzero;stroke:none"
         id="path182" /><path
         d="m 791.965,3997.42 c -0.192,-65.58 -0.781,-131.18 -0.063,-196.75 0.086,-7.39 11.364,-7.4 11.493,0 1.097,65.57 0.886,131.17 1.074,196.75 0.023,8.04 -12.489,8.05 -12.504,0"
         style="fill:#c8dce4;fill-opacity:1;fill-rule:nonzero;stroke:none"
         id="path184" /><g
         id="g186"
         transform="scale(10)"><text
           transform="matrix(1,0,0,-1,90.782,373.61)"
           style="font-variant:normal;font-weight:600;font-size:21.6751px;font-family:Rubik;-inkscape-font-specification:Rubik-SemiBold;writing-mode:lr-tb;fill:#fbc15d;fill-opacity:1;fill-rule:nonzero;stroke:none"
           id="text190"><tspan
             x="0 15.020844 29.153009"
             y="0"
             sodipodi:role="line"
             id="tspan188">CSS</tspan></text></g><path
         d="m 376.262,2448.48 c 0,26.35 0,52.7 0,79.05 0,5.2 5.742,8.05 10.945,8.11 39.199,0.48 78.398,0.96 117.602,1.44 36.906,0.44 73.808,0.89 110.714,1.34 24.348,-24.88 44.313,-53.32 53.957,-86.77 -73.816,-7.21 -148.039,-9.08 -222.179,-10.94 -23.059,-0.58 -46.52,-1.11 -68.723,5.12 -0.558,1.9 -2.316,0.66 -2.316,2.65"
         style="fill:#f9aa2d;fill-opacity:1;fill-rule:nonzero;stroke:none"
         id="path192" /><path
         d="m 1090.29,2097.82 c 2.04,110.15 0.59,218.4 -0.71,327.79 -0.13,10.73 -0.01,22.08 -5.54,30.96 -5.53,8.9 -18.08,10.26 -27.95,10.43 -219.828,3.95 -439.742,2.2 -659.496,-5.22 -7.125,-0.24 -14.106,0.06 -20.067,-4.19 -5.961,-4.25 -5.156,-8.63 -4.902,-20.06 1.891,-117.51 3.785,-235.02 5.68,-352.53 0.277,-17.29 18.871,-28.63 34.797,-28.61 214.714,0.26 430.726,11.53 645.448,11.79 8.48,0.01 17.53,0.2 24.53,5.38 7.01,5.19 9.59,13.31 8.21,24.26"
         style="fill:#f9aa2d;fill-opacity:1;fill-rule:nonzero;stroke:none"
         id="path194" /><path
         d="m 636.547,2470.42 c -39.942,-0.51 -79.875,-1.01 -119.817,-1.51 -19.968,-0.26 -39.937,-0.5 -59.91,-0.76 -17.308,-0.22 -39.164,2.72 -55.675,-2.78 -1.454,-0.48 -1.426,-2.51 0.031,-2.95 16.715,-5.13 38.34,-1.65 55.734,-1.44 19.969,0.22 39.942,0.45 59.91,0.67 39.938,0.46 79.879,0.91 119.817,1.37 4.765,0.05 4.679,7.46 -0.09,7.4"
         style="fill:#ffffff;fill-opacity:1;fill-rule:nonzero;stroke:none"
         id="path196" /><path
         d="m 376.262,1769.95 c 0,26.35 0,52.7 0,79.04 0,5.21 5.742,8.05 10.945,8.12 39.199,0.48 78.398,0.96 117.602,1.44 36.906,0.44 73.808,0.89 110.714,1.34 24.348,-24.88 44.313,-53.32 53.957,-86.77 -73.816,-7.21 -148.039,-9.08 -222.179,-10.94 -23.059,-0.58 -46.52,-1.12 -68.723,5.12 -0.558,1.91 -2.316,0.66 -2.316,2.65"
         style="fill:#6a8bcf;fill-opacity:1;fill-rule:nonzero;stroke:none"
         id="path198" /><path
         d="m 1090.29,1419.29 c 2.04,110.14 0.59,218.4 -0.71,327.79 -0.13,10.72 -0.01,22.07 -5.54,30.97 -5.53,8.88 -18.08,10.24 -27.95,10.43 -219.828,3.93 -439.742,2.19 -659.496,-5.23 -7.125,-0.24 -14.106,0.05 -20.067,-4.2 -5.961,-4.24 -5.156,-8.62 -4.902,-20.06 1.891,-117.51 3.785,-235.02 5.68,-352.52 0.277,-17.28 18.871,-28.63 34.797,-28.61 214.714,0.26 430.726,11.53 645.448,11.79 8.48,0.01 17.53,0.2 24.53,5.39 7.01,5.18 9.59,13.29 8.21,24.25"
         style="fill:#6a8bcf;fill-opacity:1;fill-rule:nonzero;stroke:none"
         id="path200" /><path
         d="m 636.547,1791.89 c -39.942,-0.51 -79.875,-1.01 -119.817,-1.52 -19.968,-0.24 -39.937,-0.5 -59.91,-0.75 -17.308,-0.22 -39.164,2.71 -55.675,-2.78 -1.454,-0.48 -1.426,-2.5 0.031,-2.95 16.715,-5.13 38.34,-1.64 55.734,-1.45 19.969,0.23 39.942,0.45 59.91,0.69 39.938,0.44 79.879,0.89 119.817,1.35 4.765,0.06 4.679,7.46 -0.09,7.41"
         style="fill:#ffffff;fill-opacity:1;fill-rule:nonzero;stroke:none"
         id="path202" /></g></g></svg>
